PathFileType	4	(X/Y/Z)	Walking04.trc	
DataRate	CameraRate	NumFrames	NumMarkers	Units	OrigDataRate	OrigDataStartFrame	OrigNumFrames	
100.00	100.00	19	19	mm	100.00	422	98	
Frame#	Time	RPSI			LPSI			RASI			LASI			RTHI			RKNE			RHFB			RTUB			RSHN			RANK			RLCA			RSTL			RPCA			RCPG			RHEE			RP5M			RP1M			RD5M			RTOE			
		X1	Y1	Z1	X2	Y2	Z2	X3	Y3	Z3	X4	Y4	Z4	X5	Y5	Z5	X6	Y6	Z6	X7	Y7	Z7	X8	Y8	Z8	X9	Y9	Z9	X10	Y10	Z10	X11	Y11	Z11	X12	Y12	Z12	X13	Y13	Z13	X14	Y14	Z14	X15	Y15	Z15	X16	Y16	Z16	X17	Y17	Z17	X18	Y18	Z18	X19	Y19	Z19	

74	0.730	323.99213	925.47998	-85.40217	319.60709	934.18500	-179.56421	515.54456	877.46417	-19.61742	512.32697	878.44324	-255.37085	500.60327	582.66956	47.02058	547.82001	453.05209	42.84990	535.46729	419.27957	42.34136	591.72760	387.66022	-5.12523	538.08484	327.62265	-20.53452	311.84760	181.65446	-19.10927	289.02432	169.45018	-28.39999	306.00018	161.82727	-91.33366	288.61118	201.20799	-65.30460	262.32419	205.60947	-70.26151	260.11209	173.05968	-74.67619	340.90805	90.60261	8.24872	394.78076	112.44248	-64.43787	366.16910	69.44279	17.28726	407.43930	66.18452	-16.45020 
75	0.740	338.11276	926.19775	-84.44309	333.43600	934.78351	-178.59108	530.05737	878.87299	-20.59271	525.82593	878.83685	-256.43695	520.02405	584.32642	45.92136	570.17450	455.38242	40.17909	558.98309	420.27036	39.77405	616.52972	391.85361	-8.33161	566.36682	329.19742	-23.27172	349.55490	169.38025	-18.98296	328.03708	155.99567	-27.42075	344.76065	148.76682	-91.06156	323.33917	186.63277	-65.03323	297.11029	189.56096	-70.09042	297.99878	156.82045	-73.66370	385.25580	81.07740	8.77468	436.83774	106.26257	-64.74284	413.32169	62.12836	17.18655	453.76373	61.65773	-16.62000 
76	0.750	352.20438	926.44464	-83.36652	347.26065	935.00867	-177.43143	544.45074	879.96259	-21.26348	539.30688	878.80945	-257.27899	539.02588	585.85138	44.68381	591.72363	457.21460	37.29653	581.80304	421.02975	36.99102	640.37952	395.61884	-11.70097	594.13641	330.36185	-26.02526	388.35693	156.56439	-18.66519	367.95795	142.40002	-26.07887	384.67288	135.23416	-91.00853	362.05356	172.45624	-64.45297	333.90808	172.96390	-69.44849	337.32147	140.02885	-72.72638	430.62958	71.53184	9.32551	479.28421	99.84436	-64.66223	460.18692	54.84113	17.54084	501.18231	57.40333	-16.93476 
77	0.760	366.27316	926.19989	-82.25874	361.08435	934.86975	-176.26424	558.81885	880.71643	-21.59919	552.30524	878.15082	-257.86710	557.58514	586.85730	43.55509	612.45001	458.58984	34.21238	603.91736	421.33801	34.02252	663.17200	398.98761	-15.10259	621.20746	331.10364	-28.80463	428.35721	143.46341	-17.94059	408.24786	127.26363	-26.23782	425.22095	121.86927	-90.38904	400.69507	157.55937	-64.04999	371.66733	155.47121	-68.34146	377.98483	122.93659	-71.69266	477.00735	62.24263	9.87212	522.62799	93.49923	-64.75446	507.60464	47.83566	17.97772	547.61005	52.81228	-17.04737 
78	0.770	380.33258	925.47906	-81.20490	374.83795	934.36029	-175.15892	573.15491	880.98956	-21.60026	565.17822	876.93115	-258.23135	575.72382	587.29041	42.41720	632.26184	459.41525	31.03714	625.35101	421.15967	30.98277	684.92236	401.90875	-18.55672	647.71735	331.53699	-31.38700	469.49222	130.18736	-17.23460	450.12906	112.72859	-25.42149	466.54468	108.37169	-89.76090	440.38455	142.29196	-63.55233	410.88684	137.98343	-66.82489	419.90573	105.89079	-70.34902	524.32196	53.43573	10.37701	566.73138	87.58382	-64.98581	556.34235	41.50055	17.88342	594.48383	48.83281	-17.24541 
79	0.780	394.52844	924.29584	-80.15073	388.64957	933.44708	-174.04785	587.54047	880.80371	-21.38559	578.11877	875.38275	-258.30594	593.41486	587.01880	41.04704	651.13794	459.55209	28.00270	645.90802	420.54825	27.98253	705.66589	404.33505	-22.11512	673.51178	331.66681	-33.85613	511.47867	117.50937	-16.44827	493.55954	98.87263	-24.71159	509.30643	95.22987	-88.90022	481.61038	127.18291	-62.57211	452.48843	120.57832	-65.95267	463.32135	89.30044	-69.03980	572.48102	45.39245	10.82202	611.66785	82.47305	-65.17065	605.18811	35.94097	18.03777	642.23279	46.02342	-17.43975 
80	0.790	408.72443	922.69659	-79.14996	402.44821	932.11340	-172.79298	601.98486	880.03412	-21.04553	591.25818	873.55951	-258.20993	610.71460	586.11810	39.56451	669.19543	458.99918	24.78531	665.67938	419.38126	25.09659	725.24097	406.26324	-25.71877	698.59570	331.53906	-36.39738	554.19550	105.72968	-15.63227	538.29175	85.61911	-24.39703	553.72192	83.27666	-87.70355	509.34415	117.45463	-61.94085	494.79825	103.99803	-64.53185	508.09921	73.74604	-67.85137	621.09290	38.41523	11.23892	657.07391	77.98335	-65.09521	654.33679	31.32310	18.13705	690.38965	44.08123	-17.85744 
81	0.800	423.08667	920.63812	-78.07744	416.42938	930.31024	-171.26982	616.60126	878.61218	-20.72377	604.64398	871.55859	-257.99243	627.21515	584.57257	37.59310	686.36432	457.79138	21.47313	684.62817	417.50525	22.22580	743.71588	407.48911	-29.36120	723.05463	331.31860	-39.06129	597.95801	94.74611	-14.78365	583.52112	73.22259	-23.90776	599.18933	72.88660	-86.76797				538.61420	88.65808	-63.70121	553.92584	59.66351	-66.64099	669.63239	32.51398	11.70186	702.64783	74.47359	-65.18437	703.63489	28.03386	18.26111	738.33539	43.02123	-18.20365 
82	0.810	437.50052	918.16895	-76.90111	430.49744	928.30896	-169.71609	631.34131	876.61035	-20.50160	618.30304	869.45404	-257.78082	643.09729	582.34418	35.45617	702.39105	455.83450	17.95524	702.45728	415.04605	19.07790	761.37097	407.88174	-33.01260	746.77087	331.15387	-41.88101	642.15778	86.02765	-14.53687	628.21692	63.56004	-23.25462	644.25732	63.60615	-85.94370				583.12909	74.97662	-62.71822	600.39996	47.38528	-65.63715	718.01569	28.22827	12.09984	747.89276	72.09031	-65.36045	752.64880	26.58321	18.64899	785.91559	43.38322	-18.41998 
83	0.820	452.17514	915.34790	-75.40945	444.54648	926.19916	-168.05095	646.29767	874.15503	-20.24857	631.29706	866.81464	-257.53336	658.31165	579.57605	33.28191	717.26569	452.97308	14.70019	719.34619	411.89444	16.03894	779.51337	408.22339	-36.37001	769.79572	331.09879	-44.86569	686.44287	78.76752	-14.38330	673.37054	55.45910	-22.80763	688.95868	56.13567	-85.38029	667.67249	74.93630	-58.94390	627.96039	63.22907	-61.99656	647.17371	37.09298	-64.75417	766.69476	26.44727	12.05092	792.24835	71.38000	-65.60505	801.00952	27.04835	18.83089	832.69940	45.97927	-18.56919 
84	0.830	467.55731	912.26373	-73.57964	458.76089	923.98712	-166.08781	661.44537	871.20197	-19.99291	643.73993	863.67163	-257.23087	673.02417	576.27039	31.31925	731.37073	449.25470	11.32782	735.70441	408.30606	13.07458	798.43549	408.73099	-39.42337	792.15283	331.20740	-47.79351	730.25751	73.46677	-14.29010	718.70978	49.28575	-22.06399	733.72693	50.16722	-84.87077	700.04877	69.64024	-58.66566	672.63342	53.45070	-61.47750	693.69452	28.88039	-64.18382	814.32312	26.88956	11.88202	835.84467	73.24314	-65.76682	848.36707	29.92622	18.71170	878.57574	51.18468	-18.84793 
85	0.840	483.35486	909.07043	-71.54958	473.17249	921.76270	-163.77545	676.87402	867.80408	-19.85850	657.52673	860.68109	-256.87866	687.31396	572.37421	29.75498	745.26141	445.04300	8.14667	751.65631	404.48062	10.34130	814.25195	406.53906	-43.22422	813.87921	331.55075	-50.52760	772.97424	70.22419	-14.45953	764.04822	45.20974	-21.01596	777.83154	46.31422	-84.63508	739.90399	64.21896	-58.60736	716.59534	45.49169	-61.21652	739.55829	22.70671	-63.82959	860.47388	29.68274	11.34852	877.97186	77.39946	-66.12457	894.07660	35.57990	18.19368	922.63574	58.80129	-19.32113 
86	0.850	498.32571	906.19818	-69.31693	487.75433	919.58319	-161.32727	692.53107	864.06177	-19.77901	671.26434	857.43634	-256.52359	701.25079	567.91937	28.67796	759.36725	440.69229	5.40500	767.69849	400.82251	7.79739	829.00806	403.77530	-47.25079	835.04706	332.21411	-52.99155	814.06274	68.93970	-14.83119	807.49988	43.09145	-21.33097	820.48975	45.37049	-84.80756	780.52972	60.48289	-58.76431	759.19904	39.61039	-61.42113	784.02448	18.75369	-63.61586	904.45819	34.49149	10.66355	918.07361	83.21313	-66.92944	937.39233	43.06021	17.08680	964.52783	68.07613	-20.18977 
87	0.860	513.69604	903.33752	-66.88416	502.42447	917.40283	-158.85913	708.39417	860.10706	-19.74961	685.18628	854.14923	-256.15692	714.82013	562.93750	28.10594	773.78046	436.32813	3.25633	783.90216	397.51678	5.42242	844.96979	402.42181	-50.52543	855.63739	333.08652	-55.16211	853.02460	69.29832	-15.54552	848.35297	43.13591	-21.73019	860.92139	46.23978	-85.37287	819.65424	58.44009	-59.39304	799.93976	36.33147	-61.72633	825.55011	17.55874	-63.94480	945.80792	40.35341	9.47507	955.84113	90.06004	-67.92333	978.06677	50.79354	15.79703	1003.72479	77.80120	-21.55593 
88	0.870	529.48334	900.47723	-64.28873	517.34894	915.19208	-156.36876	724.42749	855.96423	-19.71373	699.41382	850.88568	-255.87498	727.72003	557.46234	27.92385	788.52069	432.35828	1.66976	800.21588	394.59384	3.38793	861.13464	401.82086	-53.26867	875.59271	334.03293	-56.98087	889.55426	70.81552	-16.75219	886.39508	44.44943	-22.80030	898.45898	48.04636	-86.35543	856.42371	58.02628	-60.53329	838.18219	35.02289	-62.41193	864.32776	17.98273	-64.92738	983.62225	47.47333	8.39395	990.94672	97.25249	-69.09459	1015.43317	58.75780	14.57128	1039.91675	87.56770	-23.17413 
89	0.880	545.47455	897.71039	-61.57150	532.56305	912.86090	-153.84012	740.52344	851.75964	-19.51653	713.73175	847.52881	-255.67520	739.65790	551.67712	27.77092	803.80005	428.99176	0.45159	816.70337	392.00259	1.85748	877.19409	401.36212	-55.55952	894.81390	334.94388	-58.51422	923.05353	72.84668	-18.45418	921.21246	46.25964	-24.76258	932.76166	50.41680	-88.03362	890.37543	58.60094	-62.36856	873.39362	34.88493	-64.09229	899.93079	19.43169	-66.81903	1017.24506	55.11447	7.67138	1023.19934	104.19204	-70.51511	1048.91345	66.19282	13.47713	1072.83264	96.59087	-24.76732 
90	0.890	561.45544	895.05396	-58.88397	548.03815	910.39752	-151.30331	756.61389	847.69183	-19.26168	728.18500	844.14557	-255.68709	751.54486	546.21155	27.39833	819.75909	426.24600	-0.43985	833.26593	389.55551	0.80795	893.24347	400.59665	-57.08609	913.12518	335.69312	-59.68925	953.24402	74.77837	-20.80845	952.58002	47.95131	-27.42033	964.39423	53.38750	-90.56017	921.35339	59.53510	-64.85151	905.37939	35.12719	-67.16837	932.18591	21.27707	-69.68205	1047.80359	60.72110	5.92948	1052.30432	110.46539	-71.92802	1079.40125	72.15314	11.82071	1102.39160	104.27720	-26.29874 
91	0.900	577.55573	892.53888	-56.27774	564.19623	907.71747	-148.70799	772.60626	843.86371	-19.04157	742.68951	840.77789	-255.83943	765.26666	541.72900	26.98881	836.16876	423.65314	-0.97626	849.85516	387.15427	0.11943	909.48395	399.50293	-57.89038	931.42120	336.49640	-60.30984	979.89282	76.00373	-23.44587	980.24762	49.25544	-30.31775	992.31323	55.46542	-93.25901	948.67578	60.33276	-67.87635	933.84906	35.48463	-70.81503	961.27698	22.11544	-73.23501	1074.96362	64.68290	3.54369	1077.96692	115.45054	-73.39370	1106.23181	76.65581	9.94378	1128.40942	110.27165	-27.81722 
92	0.910	593.74091	890.04254	-53.81336	580.87952	904.94775	-146.14114	788.59674	840.45215	-18.81677	757.28333	837.56757	-256.02847	781.72290	538.82910	26.74520	852.76721	421.28244	-1.39384	866.70416	384.94614	-0.46655	926.17517	398.42715	-58.21681	950.20715	337.28467	-60.46136	1002.86053	76.43544	-25.97692	1003.87122	49.70068	-33.20436	1016.37268	56.56511	-95.60301	972.18341	60.44372	-70.77817	957.83154	35.55939	-74.15418	986.55200	21.34178	-76.84644	1098.05225	67.04501	1.29712	1100.33044	118.40586	-74.99409	1129.19873	79.20541	7.92749	1150.89331	113.91275	-29.59504 
